<?xml version="1.0" encoding="utf-8"?>
<!-- Generator: Adobe Illustrator 27.5.0, SVG Export Plug-In . SVG Version: 6.00 Build 0)  -->
<svg version="1.1" id="Layer_1" xmlns="http://www.w3.org/2000/svg" xmlns:xlink="http://www.w3.org/1999/xlink" x="0px" y="0px"
	 viewBox="0 0 85 85.3" style="enable-background:new 0 0 85 85.3;" xml:space="preserve">
<path d="M18.2,70.3c1.6,1.6,3.3,2.3,3.9,1.7l0,0l42.4-42.4c0.6-0.6-0.1-2.4-1.7-3.9s-3.3-2.3-3.9-1.7L16.5,66.3l0,0
	C15.9,67,16.7,68.7,18.2,70.3z M58.9,26.7c0.3-0.3,1.2,0.1,2,0.9s1.2,1.7,0.9,2L51.3,40l-2.8-2.8L58.9,26.7z"/>
<path d="M66,18.9c-7.2-1.7-8-1.3-11.1,5.4c1.7-7.2,1.3-8-5.4-11.1c7.2,1.7,8,1.3,11.1-5.4C58.9,15,59.3,15.8,66,18.9z"/>
<path d="M76.8,22.5c-4.2,4.3-4.2,5-0.9,9.9c-4.3-4.2-4.9-4.2-9.9-0.9c4.2-4.3,4.2-4.9,0.9-9.9C71.2,25.8,71.9,25.8,76.8,22.5z"/>
<path d="M51.3,25.4c-3.1-2.6-3.6-2.6-6.8,0c2.6-3.1,2.6-3.6,0-6.8c3.1,2.6,3.6,2.6,6.8,0C48.7,21.8,48.7,22.3,51.3,25.4z"/>
<path d="M68.2,35.9c-3.1,0.8-3.3,1.1-3.1,4.3c-0.8-3.1-1.1-3.3-4.3-3.1c3.1-0.8,3.3-1.1,3.1-4.3C64.7,35.8,65,36,68.2,35.9z"/>
</svg>
